# vtk DataFile Version 2.0
tracks
ASCII
DATASET POLYDATA
POINTS 40 float
0.001 -0.002 -1.0842e-19 0.001 -0.00189744 -8.80914e-20 0.001 -0.00179487 -5.42101e-20 0.001 -0.00169231
-5.42101e-20 0.001 -0.00158974 -6.77626e-20 0.001 -0.00148718 -5.42101e-20 0.001 -0.00138462 -8.13152e-20
0.001 -0.00128205 -2.71051e-20 0.001 -0.00117949 -2.71051e-20 0.001 -0.00107692 4.06576e-20 0.001
-0.000974359 6.4798e-20 0.001 -0.000871795 5.42101e-20 0.001 -0.000769231 -6.77626e-21 0.001 -0.000666667
1.0842e-19 0.001 -0.000564103 8.13152e-20 0.001 -0.000461538 -1.35525e-20 0.001 -0.000358974 2.71051e-20
0.001 -0.00025641 -4.06576e-20 0.001 -0.000153846 2.71051e-20 0.001 -5.12821e-05 8.13152e-20 0.001
5.12821e-05 6.77626e-20 0.001 0.000153846 -5.42101e-20 0.001 0.00025641 0 0.001 0.000358974
0 0.001 0.000461538 6.63068e-20 0.001 0.000564103 8.13152e-20 0.001 0.000666667 -2.71051e-20
0.001 0.000769231 -2.71051e-20 0.001 0.000871795 -8.80914e-20 0.001 0.000974359 -1.6263e-19 0.001
0.00107692 -2.43945e-19 0.001 0.00117949 -2.30393e-19 0.001 0.00128205 -2.71051e-19 0.001 0.00138462
-1.6263e-19 0.001 0.00148718 -1.79995e-19 0.001 0.00158974 -1.89735e-19 0.001 0.00169231 -1.82959e-19
0.001 0.00179487 -3.20178e-19 0.001 0.00189744 -2.1684e-19 0.001 0.002 -2.74439e-19 
VERTICES 40 80
1 0 1 1 1 2 1 3 1 4 1
5 1 6 1 7 1 8 1 9 1
10 1 11 1 12 1 13 1 14 1
15 1 16 1 17 1 18 1 19 1
20 1 21 1 22 1 23 1 24 1
25 1 26 1 27 1 28 1 29 1
30 1 31 1 32 1 33 1 34 1
35 1 36 1 37 1 38 1 39 
POINT_DATA 40
FIELD attributes 2
age 1 40 float
0 0 0 0 0 0 0 0 0 0 0
0 0 0 0 0 0 0 0 0 0
0 0 0 0 0 0 0 0 0 0
0 0 0 0 0 0 0 0 0 
U 3 40 float
0 0 0 0 0 0 0 0 0 0 0
0 0 0 0 0 0 0 0 0 0
0 0 0 0 0 0 0 0 0 0
0 0 0 0 0 0 0 0 0 0
0 0 0 0 0 0 0 0 0 0
0 0 0 0 0 0 0 0 0 0
0 0 0 0 0 0 0 0 0 0
0 0 0 0 0 0 0 0 0 0
0 0 0 0 0 0 0 0 0 0
0 0 0 0 0 0 0 0 0 0
0 0 0 0 0 0 0 0 0 0
0 0 0 0 0 0 0 0 0 
